<?xml version="1.0"?><svg width="1122.5196666666666" height="793.7007866666665" xmlns="http://www.w3.org/2000/svg" xmlns:xlink="http://www.w3.org/1999/xlink">
 <defs>
  <linearGradient id="linearGradient1813">
   <stop stop-color="#c1c1c1" offset="0" id="stop1814"/>
   <stop stop-color="#ebebeb" offset="1" id="stop1815"/>
  </linearGradient>
  <radialGradient xlink:href="#linearGradient1813" spreadMethod="reflect" r="0.123897" id="radialGradient1974" gradientUnits="userSpaceOnUse" gradientTransform="scale(1.292795,0.773518)" fy="968.27203" fx="-51.197258" cy="968.27203" cx="-51.197258"/>
  <radialGradient xlink:href="#linearGradient1813" spreadMethod="reflect" r="0.123897" id="radialGradient1975" gradientUnits="userSpaceOnUse" gradientTransform="matrix(0.731673,-9.984360e-2,5.973940e-2,0.437782,-85.23463,311.0600)" fy="968.27203" fx="-51.197258" cy="968.27203" cx="-51.197258"/>
  <radialGradient xlink:href="#linearGradient1813" spreadMethod="reflect" r="0.123897" id="radialGradient1976" gradientUnits="userSpaceOnUse" gradientTransform="matrix(-1.292795,0.000000,0.000000,0.773518,-43.88636,-0.261378)" fy="968.27203" fx="-51.197258" cy="968.27203" cx="-51.197258"/>
  <radialGradient xlink:href="#linearGradient1813" spreadMethod="reflect" r="0.123897" id="radialGradient1977" gradientUnits="userSpaceOnUse" gradientTransform="matrix(-0.731673,-9.984360e-2,-5.973940e-2,0.437782,41.34823,310.7986)" fy="968.27203" fx="-51.197258" cy="968.27203" cx="-51.197258"/>
 </defs>
 <g>
  <title>Layer 1</title>
  <g id="layer1">
   <g transform="matrix(2.434871,0.000000,0.000000,2.434871,530.0654,-1683.813)" id="g1928">
    <path fill="#b39244" fill-rule="evenodd" stroke="#000000" stroke-width="4.096" stroke-miterlimit="4" id="path1759" d="m-149.21875,742.28125c-11.080002,0 -20,8.919983 -20,20l0,179.40625c0,8.737976 5.595337,16.076843 13.375,18.8125l21.15625,14.34375c3.644012,3.886047 8.790222,6.34375 14.5625,6.34375l260.84375,0c11.080002,0 20,-8.920044 20,-20l0,-163.625l0,-15.78125c0,-6.108459 -2.773026,-11.49353 -7.0625,-15.15625l-0.03125,-0.125l-0.6875,-0.46875c-0.65744,-0.510437 -1.342804,-0.979919 -2.0625,-1.40625l-27.90625,-18.96875l-0.09375,0.0625c-3.202019,-2.175659 -7.070427,-3.4375 -11.25,-3.4375l-260.84375,0z"/>
    <g transform="matrix(0.969719,-0.244221,0.244221,0.969719,-199.7456,-27.53724)" id="g1781">
     <path fill="none" fill-opacity="0.75" fill-rule="evenodd" stroke="#4d3300" stroke-width="1.365333" stroke-linecap="round" stroke-miterlimit="4" id="path1775" d="m-200.338928,950.735168c-0.982742,8.063782 0.218948,13.566895 3.567139,16.804138"/>
     <path fill="none" fill-opacity="0.75" fill-rule="evenodd" stroke="#4d3300" stroke-width="1.365333" stroke-linecap="round" stroke-miterlimit="4" id="path1776" d="m-196.216736,957.11084c-0.982727,8.063843 0.218948,13.566956 3.567139,16.804199"/>
     <path fill="none" fill-opacity="0.75" fill-rule="evenodd" stroke="#4d3300" stroke-width="1.365333" stroke-linecap="round" stroke-miterlimit="4" id="path1777" d="m-191.499557,964.579712c-1.965469,16.127625 4.806778,22.012512 20.013275,20.013306"/>
    </g>
    <path fill="#b39244" fill-rule="evenodd" stroke="#000000" stroke-width="3.594688" stroke-linecap="round" stroke-linejoin="round" stroke-miterlimit="4" stroke-dashoffset="0" id="rect1754" d="m-120.8125,761.96875c-11.080002,0 -20,8.919983 -20,20l0,179.40625c0,11.080017 8.919998,20 20,20l260.84375,0c11.080002,0 20,-8.920044 20,-20l0,-179.40625c0,-11.080017 -8.919998,-20 -20,-20l-260.84375,0z"/>
    <g id="g1770">
     <path fill="none" fill-opacity="0.75" fill-rule="evenodd" stroke="#4d3300" stroke-width="1.365333" stroke-linecap="round" stroke-miterlimit="4" id="path1767" d="m-161.786621,768.662231c-1.965485,-16.127625 4.806778,-22.012512 20.013275,-20.013306"/>
     <path fill="none" fill-opacity="0.75" fill-rule="evenodd" stroke="#4d3300" stroke-width="1.365333" stroke-linecap="round" stroke-miterlimit="4" id="path1768" d="m-155.410889,772.784424c-1.965485,-16.127625 4.806763,-22.012512 20.013275,-20.013306"/>
     <path fill="none" fill-opacity="0.75" fill-rule="evenodd" stroke="#4d3300" stroke-width="1.365333" stroke-linecap="round" stroke-miterlimit="4" id="path1769" d="m-147.942047,777.501587c-1.965469,-16.127563 4.806778,-22.012451 20.013275,-20.013245"/>
    </g>
    <g id="g1803">
     <path fill="none" fill-opacity="0.75" fill-rule="evenodd" stroke="#4d3300" stroke-width="1.365333" stroke-linecap="round" stroke-miterlimit="4" id="path1790" d="m124.029587,755.944275c8.063797,-0.982727 13.56691,0.218933 16.804184,3.567139"/>
     <path fill="none" fill-opacity="0.75" fill-rule="evenodd" stroke="#4d3300" stroke-width="1.365333" stroke-linecap="round" stroke-miterlimit="4" id="path1791" d="m117.653862,751.822083c8.063789,-0.982788 13.566902,0.218933 16.804176,3.567139"/>
     <path fill="none" fill-opacity="0.75" fill-rule="evenodd" stroke="#4d3300" stroke-width="1.365333" stroke-linecap="round" stroke-miterlimit="4" id="path1792" d="m110.185005,747.104858c8.063797,-0.982727 13.56691,0.218994 16.804184,3.567139"/>
    </g>
    <g transform="matrix(1.275832,0.000000,0.000000,1.275832,20.98973,-207.8188)" id="g1828">
     <path fill="#907536" fill-rule="evenodd" stroke="#4d3300" stroke-width="1.365004" stroke-linecap="round" stroke-linejoin="round" stroke-miterlimit="4" stroke-dashoffset="0" id="path1807" d="m-58.892212,752.369568a7.66541,3.12074 0 1 1 -15.330803,0a7.66541,3.12074 0 1 1 15.330803,0z"/>
     <path fill="#907536" fill-rule="evenodd" stroke="#4d3300" stroke-width="1.365333" stroke-linecap="round" stroke-linejoin="round" stroke-miterlimit="4" stroke-dashoffset="0" id="path1808" d="m30.340969,752.172852a7.66541,3.12074 0 1 1 -15.330807,0a7.66541,3.12074 0 1 1 15.330807,0z"/>
     <path fill="none" fill-rule="evenodd" stroke="url(#radialGradient1974)" stroke-width="1.570133" stroke-linecap="round" stroke-linejoin="round" stroke-miterlimit="4" stroke-dashoffset="0" id="path1809" d="m-58.963501,752.170044c0.006809,-0.140625 0.0625,-0.263794 0.0625,-0.40625c0,-4.496521 -3.424938,-8.125 -7.656242,-8.125c-4.231308,0 -7.65625,3.628479 -7.65625,8.125c0,0.142456 0.055687,0.265625 0.0625,0.40625"/>
     <path fill="none" fill-rule="evenodd" stroke="url(#radialGradient1975)" stroke-width="1.365333" stroke-linejoin="round" stroke-miterlimit="4" stroke-dashoffset="0" id="path1817" d="m-61.68124,744.506348c0.297791,-0.420959 0.723751,-0.926392 0.934849,-1.50238c0.211102,-0.575928 0.305611,-1.222412 0.235321,-1.925232c-0.347271,-2.544861 -2.565891,-4.333923 -4.960648,-4.007141c-2.394753,0.326782 -4.05291,2.644836 -3.705643,5.189697c0.548714,2.518677 2.840569,3.85144 4.684837,3.643982c0.673302,-0.075745 1.399212,-0.067627 1.539864,-0.403687"/>
     <path fill="none" fill-rule="evenodd" stroke="url(#radialGradient1976)" stroke-width="1.570133" stroke-linecap="round" stroke-linejoin="round" stroke-miterlimit="4" stroke-dashoffset="0" id="path1821" d="m15.07709,751.90863c-0.00681,-0.140625 -0.0625,-0.263794 -0.0625,-0.40625c0,-4.49646 3.424951,-8.124939 7.656249,-8.125c4.23131,0 7.65625,3.62854 7.65625,8.125c0,0.142456 -0.055689,0.265625 -0.0625,0.40625"/>
     <path fill="none" fill-rule="evenodd" stroke="url(#radialGradient1977)" stroke-width="1.365333" stroke-linejoin="round" stroke-miterlimit="4" stroke-dashoffset="0" id="path1822" d="m17.79483,744.244995c-0.297791,-0.420959 -0.723751,-0.926453 -0.934851,-1.50238c-0.21109,-0.575989 -0.305599,-1.222412 -0.235319,-1.925293c0.347269,-2.544861 2.565889,-4.333923 4.960649,-4.007141c2.39476,0.326782 4.052919,2.644897 3.70565,5.189758c-0.548719,2.518677 -2.84058,3.85144 -4.684841,3.643921c-0.673309,-0.075745 -1.39921,-0.067566 -1.539869,-0.403687"/>
     <path fill="#493b1b" fill-rule="evenodd" stroke="#000000" stroke-width="0.682667" stroke-miterlimit="4" id="path1825" d="m-56.3125,713.86261l-4.15625,0l-5.90625,7.144714l-3.34375,19.731384l9.625,0.434021l1.96875,-11.7854l4.53125,-5.876038l63.3125,0l4.5,5.876038l1.96875,11.752014l9.625,-0.400635l-3.34375,-19.731384l-5.875,-7.144714l-4.1875,0l-68.71875,0z"/>
    </g>
   </g>
  </g>
 </g>
</svg>